<svg width="157" height="15" viewBox="0 0 157 15" fill="none" xmlns="http://www.w3.org/2000/svg">
<path d="M153.637 7.04019C154.45 7.21353 155.103 7.6202 155.597 8.2602C156.09 8.88686 156.337 9.60686 156.337 10.4202C156.337 11.5935 155.923 12.5269 155.097 13.2202C154.283 13.9002 153.143 14.2402 151.677 14.2402H145.137V0.200195H151.457C152.883 0.200195 153.997 0.526861 154.797 1.18019C155.61 1.83353 156.017 2.7202 156.017 3.8402C156.017 4.66686 155.797 5.35353 155.357 5.9002C154.93 6.44686 154.357 6.82686 153.637 7.04019ZM148.557 5.8802H150.797C151.357 5.8802 151.783 5.7602 152.077 5.5202C152.383 5.26686 152.537 4.9002 152.537 4.4202C152.537 3.9402 152.383 3.57353 152.077 3.3202C151.783 3.06686 151.357 2.9402 150.797 2.9402H148.557V5.8802ZM151.077 11.4802C151.65 11.4802 152.09 11.3535 152.397 11.1002C152.717 10.8335 152.877 10.4535 152.877 9.9602C152.877 9.46686 152.71 9.0802 152.377 8.8002C152.057 8.5202 151.61 8.3802 151.037 8.3802H148.557V11.4802H151.077Z" fill="#003C1A"/>
<path d="M134.395 0.200195V8.6002C134.395 9.4402 134.602 10.0869 135.015 10.5402C135.429 10.9935 136.035 11.2202 136.835 11.2202C137.635 11.2202 138.249 10.9935 138.675 10.5402C139.102 10.0869 139.315 9.4402 139.315 8.6002V0.200195H142.735V8.5802C142.735 9.83353 142.468 10.8935 141.935 11.7602C141.402 12.6269 140.682 13.2802 139.775 13.7202C138.882 14.1602 137.882 14.3802 136.775 14.3802C135.668 14.3802 134.675 14.1669 133.795 13.7402C132.928 13.3002 132.242 12.6469 131.735 11.7802C131.229 10.9002 130.975 9.83353 130.975 8.5802V0.200195H134.395Z" fill="#003C1A"/>
<path d="M124.924 11.6002H129.404V14.2402H121.504V0.200195H124.924V11.6002Z" fill="#003C1A"/>
<path d="M105.69 7.20004C105.69 5.81337 105.99 4.58004 106.59 3.50004C107.19 2.40671 108.023 1.56004 109.09 0.960039C110.17 0.346706 111.39 0.0400391 112.75 0.0400391C114.416 0.0400391 115.843 0.480039 117.03 1.36004C118.216 2.24004 119.01 3.44004 119.41 4.96004H115.65C115.37 4.37337 114.97 3.92671 114.45 3.62004C113.943 3.31337 113.363 3.16004 112.71 3.16004C111.656 3.16004 110.803 3.52671 110.15 4.26004C109.496 4.99337 109.17 5.97337 109.17 7.20004C109.17 8.42671 109.496 9.40671 110.15 10.14C110.803 10.8734 111.656 11.24 112.71 11.24C113.363 11.24 113.943 11.0867 114.45 10.78C114.97 10.4734 115.37 10.0267 115.65 9.44004H119.41C119.01 10.96 118.216 12.16 117.03 13.04C115.843 13.9067 114.416 14.34 112.75 14.34C111.39 14.34 110.17 14.04 109.09 13.44C108.023 12.8267 107.19 11.98 106.59 10.9C105.99 9.82004 105.69 8.58671 105.69 7.20004Z" fill="#003C1A"/>
<path d="M96.1444 14.2402L93.2244 8.9402H92.4044V14.2402H88.9844V0.200195H94.7244C95.831 0.200195 96.771 0.393528 97.5444 0.780195C98.331 1.16686 98.9177 1.7002 99.3044 2.3802C99.691 3.04686 99.8844 3.79353 99.8844 4.62019C99.8844 5.55353 99.6177 6.38686 99.0844 7.1202C98.5644 7.85353 97.791 8.37353 96.7644 8.68019L100.004 14.2402H96.1444ZM92.4044 6.5202H94.5244C95.151 6.5202 95.6177 6.36686 95.9244 6.0602C96.2444 5.75353 96.4044 5.3202 96.4044 4.7602C96.4044 4.22686 96.2444 3.80686 95.9244 3.5002C95.6177 3.19353 95.151 3.0402 94.5244 3.0402H92.4044V6.5202Z" fill="#003C1A"/>
<path d="M81.5841 2.9402V5.7802H86.1641V8.4202H81.5841V11.5002H86.7641V14.2402H78.1641V0.200195H86.7641V2.9402H81.5841Z" fill="#003C1A"/>
<path d="M72.3587 14.2402L67.6388 8.0402V14.2402H64.2188V0.200195H67.6388V6.3602L72.3187 0.200195H76.3388L70.8988 7.0802L76.5387 14.2402H72.3587Z" fill="#003C1A"/>
<path d="M55.5205 0C56.8955 0 58.1531 0.320183 59.292 0.959961C60.4446 1.5997 61.3473 2.48959 62 3.62988C62.6666 4.77027 63 6.05684 63 7.48926C63 8.9218 62.6667 10.2157 62 11.3701C61.3334 12.5104 60.4307 13.4003 59.292 14.04C58.1531 14.6798 56.8955 15 55.5205 15C54.1457 14.9999 52.8821 14.6797 51.7295 14.04C50.5906 13.4003 49.6805 12.5105 49 11.3701C48.3333 10.2157 48 8.9218 48 7.48926C48 6.05684 48.3334 4.77027 49 3.62988C49.6805 2.48947 50.5906 1.59972 51.7295 0.959961C52.8821 0.320279 54.1457 5.06459e-05 55.5205 0ZM52.0684 7.09766C51.3109 7.85561 51.3108 9.08486 52.0684 9.84277C52.8264 10.6007 54.0555 10.5997 54.8135 9.8418L55.0117 9.64258L54.2168 11.0352C54.141 11.1687 54.238 11.3345 54.3916 11.334L56.6406 11.3242C56.7945 11.3235 56.8899 11.1564 56.8125 11.0234L56.0361 9.69141L56.1865 9.8418C56.9444 10.5997 58.1736 10.6004 58.9316 9.84277C59.6894 9.08483 59.6893 7.85564 58.9316 7.09766L55.5 3.66602L52.0684 7.09766Z" fill="#003C1A"/>
<path d="M46.7156 4.7202C46.7156 5.53353 46.529 6.2802 46.1556 6.9602C45.7823 7.62686 45.209 8.16686 44.4356 8.5802C43.6623 8.99353 42.7023 9.2002 41.5556 9.2002H39.4356V14.2402H36.0156V0.200195H41.5556C42.6756 0.200195 43.6223 0.393528 44.3956 0.780195C45.169 1.16686 45.749 1.7002 46.1356 2.3802C46.5223 3.0602 46.7156 3.84019 46.7156 4.7202ZM41.2956 6.4802C41.949 6.4802 42.4356 6.32686 42.7556 6.0202C43.0756 5.71353 43.2356 5.2802 43.2356 4.7202C43.2356 4.1602 43.0756 3.72686 42.7556 3.4202C42.4356 3.11353 41.949 2.9602 41.2956 2.9602H39.4356V6.4802H41.2956Z" fill="#003C1A"/>
<path d="M30.3994 0.200195L25.5394 9.6002V14.2402H22.1194V9.6002L17.2594 0.200195H21.1394L23.8594 6.08019L26.5594 0.200195H30.3994Z" fill="#003C1A"/>
<path d="M15.9 0.200195V14.2402H12.48V5.82019L9.34 14.2402H6.58L3.42 5.8002V14.2402H0V0.200195H4.04L7.98 9.9202L11.88 0.200195H15.9Z" fill="#003C1A"/>
</svg>
